# xmcd
#
# Track frame offsets:
#	150
#	11329
#	21311
#	34671
#	45733
#	58157
#	76418
#	90190
#	100487
#	111943
#	124705
#	138437
#	154312
#
# Disc length: 2238 seconds
#
# Revision: 0
# Processed by: cddbd v1.4PL0 Copyright (c) Steve Scherf et al.
# Submitted via: dBpowerAMP V4.0
#
DISCID=a308bc0d
DTITLE=Darts - Live At The Beat Club
DYEAR=1980
DGENRE=Blues
TTITLE0=Come Back My Love
TTITLE1=Who's That Knocking
TTITLE2=Get It
TTITLE3=Mainliner
TTITLE4=Sh - Boom
TTITLE5=Love Bandit
TTITLE6=Naff Off
TTITLE7=Mike Deacon's Bits
TTITLE8=Sunday Kind Of Love
TTITLE9=Early In The Morning
TTITLE10=The Boy From New York City
TTITLE11=Daddy Cool/ The Girl Can't Help It
TTITLE12=Make It
EXTD=
EXTT0=
EXTT1=
EXTT2=
EXTT3=
EXTT4=
EXTT5=
EXTT6=
EXTT7=
EXTT8=
EXTT9=
EXTT10=
EXTT11=
EXTT12=
PLAYORDER=
